@startuml

class AutomatedGuidedVehicle {
    -Container: container
    -Status: status
}
class Anchorage extends ShipPlaces {
    -ShipQueue: Queue<Ship>
    -MoveShipFromQueue(): Ship
    -AddShipToQueue(Ship ship): void
    -ReturnAllShips() : List<Ship>
    -AvalibleSpace() : bool
}
class Column{
    -StackedContainers : Collection<Stack<Container>>
    -AmountContainers : int
    -MaxContainers: int
    -MaxHeight : int
    -Type : ContainerType

    -AddContainer(Container container) : void
    -InitializeContainerType(Container container) : void
    -IsContainerLongOverdue(Datetime current, int daysInStorageLimit) : bool
    -RetrieveOverdueContainer(Datetime current, int daysInStorageLimit): Container
}
class ContainerSpace {
    +Name : string
    -StorageColumns : Collection<StorageColumns>
    -AGVs : Collection<AGV>
    -TruckPickupPercentage : double
    -DaysInStorageLimit : int

    +AddStorageColumn(int amount, int numberOfCranes,  int numberOfColumns, int width, int height) : void
    -OverdueContainers(DateTime currentDate, DateTime end) : void
}
class Dockspace extends ShipPlaces {
    AddShip(Ship ship) : void
}
abstract class ShipPlaces {
    {static} -Next: int
    +Id: int
    +Name: string
    +Spaces: int
    +ShipType : ShipType
    -Ships: Collection<Ship>
    -Finished: Collection<Ship>
    +DepartingHarbour: EventHandler<DepartingHarbourArgs>

    -AddShip(Ship ship): void
    -MoveShip(int id): Ship
    -ReturnRepeatingShips(): List<Ship>
    -ReturnAllShips(): List<Ship>
    -AvailableSpace(): bool
    -RaiseDepartingHarbour(Ship ship):void
}

class StorageColumn{
    -Columns: Collection<Column>
    -NumberOfCranes: int
}
class Unloadingspace extends ShipPlaces {
    -Cranes: int
    -TruckPickupPercentage : double
    -ContainerHistory : Collection<HistoryService>
    -TargetContainerSpace : ContainerSpace

    -UnloadContainer(DateTime currentDateTime, DateTime end) : int
}
class Container {
    {static} - Next: int
    +Id: int
    +Histories: ReadOnlyCollection<HistoryService>
    -HistoriesInternal: Collection<HistoryService>
    +Type: ContainerType
}
class HistoryService {
    +Name: string
    +Time: DateTime
    +Description:string

    +ToString(): string
}

class Ship {
    {static} -Next : int
    +Id: int
    +ShipName: string
    +PlaceDestination: ShipPlaces
    +SpesificDateTime: Nullable<Datetime>
    +Weekly: Nullable<DayOfWeek>
    +Daily: Nullable<TimeOnly>
    -CurrentRepeatedDateTime: Nullable<DateTime>
    -Repeat: bool
    +Status: Status
    -AmountLongContainers: int
    -AmountShortContainers: int
    +TotalContainers:int
    +Type:ShipType
    -Containers: Queue<Container>
    +Histories: ReadOnlyCollection<HistoryService>
    -HistoriesInternal: Collection<HistoryService>
    +CurrentLocation: string

    -MakeContainers(): void
    -MoveContainer(): Container
    -AddHistory(HistoryService history): void
    -RemoveHistory(HistoryService history): void
}

class Harbour implements IHarbour {
    +Name: string
    +ShipHistory: ReadOnlyCollection<HistoryService>
    -ShipHistoryInternal: Collection<HistoryService>
    +ContainerHistory: ReadOnlyCollection<HistoryService>
    -ContainerHistoryInternal: Collection<HistoryService>
    +ShipPlacesList: Collection<ShipPlaces>
    +ShipsList: Collection<Ship>
    -AnchorageHarbour : Anchorage
    +ArrivedToHarbour: EventHandler<ArrivedToHarbourArgs>
    +DepartingAnchorage: EventHandler<DepartingAnchorageArgs>
    +MidnightStatusUpdate: EventHandler<MidnightStatusUpdateArgs>
    +MovingToAnchorage: EventHandler<MovingToAnchorageArgs>
    +ReachedDestination: EventHandler<ReachedDestinationArgs>
    +ShipSailing: EventHandler<ShipSailingArgs>

    +RemoveShipPlace(ShipPlaces shipPlaces): void
    +RemoveAllShipPlaces(): void
    +RemoveShip(Ship ship): void
    +RemoveAllShip(): void
    +AddShipPlace(ShipPlace shipPlaces): void
    +AddAllShipPlaces(List<ShipPlaces> shipPlaces): void
    +AddShip(Ship ship): void
    +AddAllShips(List<Ship> allships): void
    +Run(DateTime start, DateTime end): void
    -MoveShip(Ship theShip): Ship
    -AddSpecificPlace(int shipPlaceId, Ship ship): void
    -AddShipToAnchorage(Ship ship, DateTime current): void
    -MoveShipFromAnchorage(ShipPlaces shipPlaces, DateTime current): void
    -getAllReadOnlyShips(): IReadOnlyCollection<Ship>
    -RaiseArrivedToHarbour(Ship ship):void
    -RaiseDepartingAnchorage(Ship ship): void
    -RaiseMidnightStatus(IReadOnlyCollection<Ship> shipList): void
    -RaiseMovingToAnchorage(Ship ship): void
    -RaiseReachedDestination(Ship ship): void
    -RaiseShipSailing(Ship ship): void
}
interface IHarbour {
    +Run(DateTime start, DateTime end): void
    +RemoveShip(Ship ship): void
    +RemoveAllShip(): void
    +AddShipPlace(ShipPlaces shipPlace): void
    +AddAllShipPlaces(List<ShipPlaces> shipPlaces): void
    +AddShip(Ship ship): void
    +AddAllShips(List<Ship> allships): void
}
enum ContainerType{
    None,
    Long,
    Short
}

enum ShipType{
    All,
    Cargo,
    Passanger,
    Tankship
}

struct SimulationName{
    +ToString(): string
}

enum Status{
    Avalible,
    Busy,
    Finished
}

SimulationName --> Harbour
SimulationName --> Ship
SimulationName --> ShipPlaces
SimulationName --> ContainerSpace
ShipType ---> Ship
Harbour "1" *--- ShipPlaces
Harbour "1" *-- Ship
ShipPlaces "1" *-- Ship
Ship "1" *-- Container
Ship "1" *-- "many" HistoryService
Container "1" *--- HistoryService
ContainerSpace ---> Unloadingspace
AutomatedGuidedVehicle --o ContainerSpace
Column --o StorageColumn
StorageColumn --o ContainerSpace
ContainerType -----> Container
ContainerType -->Column
Status --> Ship
Status --> AutomatedGuidedVehicle









@enduml